<svg version="1" xmlns="http://www.w3.org/2000/svg" width="149.333" height="149.333" viewBox="0 0 112.000000 112.000000"><path d="M60 1c-9 .5-12.4 1.1-15.6 2.7-4.7 2.5-10.9 8.4-13 12.5-1.2 2.3-2.1 2.8-5.7 3-2.3.1-5.5.2-7.2.4-1.6.1-4.8.2-7 .3-4.8.2-8.2 2.8-9 6.7C.1 38.3.2 39 2.8 41c1.3 1.1 3 2 3.6 2 .6 0 1.9.9 2.8 2 1 1 4.4 3.3 7.6 4.9 5.7 2.9 11.2 8 11.2 10.4 0 .7.6 2.4 1.4 3.8 1.4 2.7.9 9.4-1.3 17.6-1.5 5.4-6.3 10.7-9.1 9.8-1.4-.4-2-.2-2 .9 0 .8.5 1.8 1 2.1 1.5.9 1.2 1.9-1 4.5-2.8 3.3-2.5 7.1.8 10.3l2.8 2.7H112V20.2l-5.1-2.6c-3.8-1.9-5.6-2.3-7-1.6-2.4 1.3-4.8.3-5.5-2.5-.3-1.2-2.9-4.5-5.8-7.4-5-4.9-5.4-5.1-11.1-5.4C74.2.6 66.3.7 60 1z"/></svg>